<svg version="1.1" xmlns="http://www.w3.org/2000/svg" xmlns:xlink="http://www.w3.org/1999/xlink" width="459.83281" height="231.16604" viewBox="0,0,459.83281,231.16604"><g transform="translate(-8.84343,-116.02019)"><g stroke-miterlimit="10"><path d="M46.55473,253.51398c0,-15.37321 0,-51.27953 0,-58.33333c0,-2.30199 2.50351,-5.66667 6.13021,-5.66667c11.45875,0 74.92771,0 146.86979,0c92.66502,0 199.38757,0 227.13021,0c4.45172,0 6.86979,3.30453 6.86979,6.66667c0,7.9319 0,40.92113 0,56.33333c0,4.88172 -2.78134,8 -7.86979,8c-52.17866,0 -346.95349,0 -373,0c-3.6267,0 -6.13021,-2.69486 -6.13021,-7z" fill="#000000" stroke="#000000" stroke-width="15"/><path d="M46.55473,253.51398c0,-15.37321 0,-51.27953 0,-58.33333c0,-2.30199 2.50351,-5.66667 6.13021,-5.66667c26.21819,0 324.71888,0 374,0c4.45172,0 6.86979,3.30453 6.86979,6.66667c0,7.9319 0,40.92113 0,56.33333c0,4.88172 -2.78134,8 -7.86979,8c-52.17866,0 -346.95349,0 -373,0c-3.6267,0 -6.13021,-2.69486 -6.13021,-7z" fill="#000000" stroke="#00f000" stroke-width="7"/><path d="M46.55473,253.51398c0,-15.37321 0,-51.27953 0,-58.33333c0,-2.30199 2.50351,-5.66667 6.13021,-5.66667c26.21819,0 324.71888,0 374,0c4.45172,0 6.86979,3.30453 6.86979,6.66667c0,7.9319 0,40.92113 0,56.33333c0,4.88172 -2.78134,8 -7.86979,8c-52.17866,0 -346.95349,0 -373,0c-3.6267,0 -6.13021,-2.69486 -6.13021,-7z" fill="#000000" stroke="none" stroke-width="0"/><path d="M468.67625,231.60321c0,63.83474 -102.93708,115.58302 -229.91641,115.58302c-126.97933,0 -229.9164,-51.74828 -229.9164,-115.58302c0,-63.83474 102.93708,-115.58302 229.9164,-115.58302c126.97933,0 229.91641,51.74828 229.91641,115.58302z" fill="none" stroke="none" stroke-width="NaN"/><text transform="translate(169.25157,241.87506) scale(1.27982,1.38301)" font-size="40" xml:space="preserve" fill="#00f000" stroke="none" stroke-width="1" font-family="&quot;BrookFree-8Mv4n&quot;, Sans Serif" font-weight="normal" text-anchor="start"><tspan x="0" dy="0">ONLINE PLAY</tspan></text></g></g></svg>