<svg version="1.1" xmlns="http://www.w3.org/2000/svg" xmlns:xlink="http://www.w3.org/1999/xlink" width="27.32032" height="27.32032" viewBox="0,0,27.32032,27.32032"><g transform="translate(-306.33984,-166.33984)"><g stroke-miterlimit="10"><path d="M310.08984,180c0,-5.47323 4.43693,-9.91016 9.91016,-9.91016c5.47323,0 9.91016,4.43693 9.91016,9.91016c0,5.47323 -4.43693,9.91016 -9.91016,9.91016c-5.47323,0 -9.91016,-4.43693 -9.91016,-9.91016z" fill="#000000" stroke="#000000" stroke-width="7.5"/><path d="M310.08984,180c0,-5.47323 4.43693,-9.91016 9.91016,-9.91016c5.47323,0 9.91016,4.43693 9.91016,9.91016c0,5.47323 -4.43693,9.91016 -9.91016,9.91016c-5.47323,0 -9.91016,-4.43693 -9.91016,-9.91016z" fill="#000000" stroke="#ffffff" stroke-width="3.5"/><path d="M310.08984,180c0,-5.47323 4.43693,-9.91016 9.91016,-9.91016c5.47323,0 9.91016,4.43693 9.91016,9.91016c0,5.47323 -4.43693,9.91016 -9.91016,9.91016c-5.47323,0 -9.91016,-4.43693 -9.91016,-9.91016z" fill="#000000" stroke="#02ff00" stroke-width="2"/><g fill="#ffffff" stroke="#02ff00" stroke-width="0.5"><path d="M321.79622,186.07693l-6.29379,-6.01555l1.07825,-1.12813l6.2938,6.01555z"/><path d="M315.36173,179.9386l6.29379,-6.01555l1.07827,1.12813l-6.2938,6.01555z"/></g></g></g></svg>